<svg id="Layer_1" data-name="Layer 1" xmlns="http://www.w3.org/2000/svg" viewBox="0 0 322 626"><defs><style>.cls-1{fill:blue;}</style></defs><title>logo</title><path class="cls-1" d="M316.6261,260.1682c2.118,1.5391,2.8828,3.8767,3.5664,6.2244a22.2177,22.2177,0,0,1,.4364,3.06,149.3473,149.3473,0,0,1,1.2322,16.0139c0.1331,3.9338.2112,7.8657,0.043,11.8035-0.1271,2.9639-.11,5.9348-0.1351,8.9027-0.033,4.003-.1371,8-0.4694,11.9919-0.16,1.9228-.2062,3.8547-0.3053,5.7835a8.6268,8.6268,0,0,1-.1141,1.7325,5.233,5.233,0,0,0-.09,2.2945,5.9257,5.9257,0,0,1-.1912,2.481c-0.3033,1.2495-.4935,2.528-0.6837,3.8016-0.2292,1.526-.4585,3.0551-0.5946,4.5922-0.1581,1.7966-.2132,3.6022-0.3193,5.4037-0.0541.9-.1351,1.7966-0.1832,2.6964a5.4657,5.4657,0,0,1-1.3893,3.52,2.244,2.244,0,0,0-.5185,1.6192,14.14,14.14,0,0,1-.5385,2.81,2.7246,2.7246,0,0,1-1.1521,1.71,0.881,0.881,0,0,1-.6766.1974,1.5491,1.5491,0,0,0-1.2222-.1112,8.3365,8.3365,0,0,1-1.8318-.5371,1.6909,1.6909,0,0,1-.6166-0.4339,12.5458,12.5458,0,0,1-1.9819-2.5972c-1.7287-3.1783-3.2061-6.4669-4.6625-9.7755-2.2091-5.018-4.4433-10.029-6.8486-14.9538-3.5084-7.1853-7.1439-14.3105-10.7934-21.4257-1.8538-3.6142-3.8627-7.1482-5.7886-10.7253-0.5205-.9649-0.986-1.9589-1.4975-2.9288-0.2322-.4409-0.5145-0.8567-0.8-1.3246a3.92,3.92,0,0,0-.7217,3.0882c0.0721,0.509.2472,1.005,0.2983,1.515q0.3544,3.5591.66,7.1222c0.18,2.12.4244,4.2415,0.4645,6.3657,0.047,2.513-.0991,5.029-0.1541,7.543-0.0921,4.1924-.2372,8.3827-0.2472,12.5751-0.006,2.9008.1772,5.8025,0.2753,8.7043a4.4039,4.4039,0,0,1,.014.9659,34.432,34.432,0,0,0-.2943,5.5971c-0.046,1.4228-.1061,2.8206-1.3183,3.9a3.6544,3.6544,0,0,0-.6236,1.4439c-0.82.57-1.5435,1.0742-2.2682,1.5792,0,0.9739.011,1.8717-.003,2.77-0.02,1.2815.0961,2.5921-.9079,3.8667-0.2172.1393-.7367-0.2274-1.2042,0.1613a2.6462,2.6462,0,0,1-1.26-.1543c-0.5115-.0531-1.028-0.0712-1.5625-0.1062a8.6462,8.6462,0,0,1-2.6025-3.74,17.8347,17.8347,0,0,1-1.4814-4.5761,25.8358,25.8358,0,0,1,.0531-6.9418,9.9726,9.9726,0,0,0,.1651-2.1182c-0.0741-1.8006-.13-3.6082-0.3523-5.3928a49.3491,49.3491,0,0,1-.0791-7.73c0.0411-1.2886.1752-2.5731,0.2593-3.8607a5.5261,5.5261,0,0,0-.005-0.7725c-0.3763-5.019-.5655-10.046-0.7127-15.077a48.7283,48.7283,0,0,0-.4364-5.2054,110.8925,110.8925,0,0,1-.7517-13.1372c-0.034-1.9268.029-3.8647-.0541-5.7966-0.037-.8377-0.1291-1.6713-0.19-2.508a34.8853,34.8853,0,0,1,.4855-6.9388,32.3192,32.3192,0,0,1,2.2962-8.3577c0.4424-1.0651.7417-2.19,1.1441-3.2735a4.47,4.47,0,0,1,.6366-1.1834,1.8421,1.8421,0,0,1,2.5425-.533,11.4515,11.4515,0,0,1,3.7757,2.9659c1.1891,1.2675,2.2642,2.6413,3.3873,3.97a3.9474,3.9474,0,0,0,.3613.4539c1.6446,1.4409,2.5094,3.39,3.5524,5.2485,1.46,2.6022,2.4444,5.4058,3.6716,8.1031a42.04,42.04,0,0,0,4.093,7.005,103.2622,103.2622,0,0,1,5.7666,8.9238c0.9559,1.68,2.009,3.3066,3.0369,4.9459q3.5375,5.6422,7.0979,11.27a1.32,1.32,0,0,0,.2893.2525c0.4654-.0591.3974-0.4359,0.3834-0.7244-0.1111-2.3848-.27-4.7685-0.3563-7.1543-0.0891-2.512-.2132-5.028-0.1461-7.538,0.1461-5.4208.2492-10.8366-.1442-16.2524-0.1031-1.4128-.08-2.8347-0.1161-4.2525-0.014-.516-0.033-1.031-0.047-1.5471-0.0651-2.3828-.1371-4.7645-0.1892-7.1473-0.025-1.16-.031-2.3216-0.004-3.4809,0.014-.6353.1061-1.2705,0.1772-1.9038a3.591,3.591,0,0,1,.9329-1.8557c1.2432-1.5471,2.4484-3.1322,3.5715-4.7675a2.8811,2.8811,0,0,1,1.8107-1.2976c2.4914-.5952,2.4914-0.6142,4.0179,1.43,0.3063,0.41.5746,0.8507,0.86,1.2756-0.3744-.12-0.6336-0.0661-0.51.4048a0.9289,0.9289,0,0,0,.31.4559,1.248,1.248,0,0,0,.4594.1273l0.021-.5291"/><path class="cls-1" d="M128.9035,215.3928a3.948,3.948,0,0,0,3.8317-1.7374,5.6,5.6,0,0,0,.3974-0.6623c1.6045-2.5631.8648-1.8086,4.2021-2.8948a3.2018,3.2018,0,0,1,1.1811,2.0491c0.3714,0.1192.7287,0.2335,1.079,0.3457a1.2642,1.2642,0,0,1,.0961.3737c-0.0431.5331-.5736,1.0451-0.003,1.6162a1.4323,1.4323,0,0,1-.036.7315c-0.038.6313-.48,1.2064-0.2412,1.8857a0.8057,0.8057,0,0,1-.1051.5421,46.26,46.26,0,0,1-2.8988,5.45,9.588,9.588,0,0,1-3.41,2.7875,25.3284,25.3284,0,0,0-3.6285,2.5421,4.9916,4.9916,0,0,1-4.29,1.2535,1.5977,1.5977,0,0,1-.9829-0.498,1.3541,1.3541,0,0,0-1.074-.6754,1.2424,1.2424,0,0,1-1.066-1.003c-0.3854-1.7665-1.5615-3.0581-2.5545-4.4639-0.3333-.4719-0.6556-0.9529-0.9509-1.4489a54.1841,54.1841,0,0,1-3.5955-7.8526c-0.3534-.8918-0.5475-1.8447-0.8608-2.7545-0.5655-1.6422-1.1681-3.27-1.75-4.9078A2.2472,2.2472,0,0,0,109.89,204.5c-0.7067.0371-1.4114,0.14-2.1171,0.2124-1.7947.1814-3.59,0.3567-5.3852,0.5451a2.4082,2.4082,0,0,0-1.5905.5852,1.9472,1.9472,0,0,1-1.067.3828q-2.3933.3186-4.7976,0.5621a4.2291,4.2291,0,0,0-2.48.7164c-0.2112,1.0391-.39,2.1833-0.6847,3.2986-0.5916,2.2445-1.2382,4.4749-1.8788,6.7064q-0.533,1.8562-1.1211,3.6974a2.0291,2.0291,0,0,1-1.028,1.3126,2.1412,2.1412,0,0,0-.9239,1.1734c-0.6156,1.9689-2.2482,2.9008-3.8107,3.9128-0.3213.2084-.7457,0.2735-1.037,0.51-1.1821.9609-2.6756,0.8346-4.0269,1.1884a2.4553,2.4553,0,0,1-1.1331-.1553c-0.5615-.1443-1.0981-0.4068-1.6656-0.498-2.94-.469-4.3012-2.5391-5.25-5.0681a1.7991,1.7991,0,0,1,.1261-1.8056,10.1436,10.1436,0,0,0,1.3463-3.5531c0.6807-3.4128,1.5535-6.7875,2.3323-10.1813,0.2743-1.1934.4765-2.4038,0.7467-3.5981,0.7567-3.3357,1.5445-6.6623,2.2942-9.9989,0.5095-2.2645.976-4.54,1.4634-6.81,0.1892-.8817.3363-1.7765,0.5866-2.64a30.3267,30.3267,0,0,0,1.4034-6.019,9.624,9.624,0,0,1,.5665-1.8427A25.59,25.59,0,0,0,81.85,173.23a36.0673,36.0673,0,0,1,1.18-5.0791,3.4264,3.4264,0,0,1,.1642-0.5561c1.6506-3.4609,2.2662-7.25,3.4213-10.8686,0.6266-1.9629,1.05-3.991,1.5985-5.9809q0.5916-2.1433,1.2742-4.2625c0.93-2.8858,1.8948-5.76,2.8317-8.6432,0.4585-1.4108.8238-2.8557,1.35-4.2395a37.5051,37.5051,0,0,1,1.64-3.491,1.9244,1.9244,0,0,1,.7848-1.027,2.6366,2.6366,0,0,0,1.1161-.5912,1.1978,1.1978,0,0,1,.9129-0.1052c1.4224,0.3737,2.9889.1363,4.2921,1.005,1.5505-.1473,2.2592.9609,3.0259,2.009a34.1216,34.1216,0,0,1,4.5254,8.7234c0.8268,2.3086,1.6116,4.6322,2.4013,6.9528a9.9381,9.9381,0,0,1,.4674,1.6764,59.5977,59.5977,0,0,0,3.15,10.9558,55.9618,55.9618,0,0,1,1.8388,6.5119c1.057,4.7224,2.1351,9.4428,3.071,14.19,0.7988,4.0531,1.8248,8.05,2.7387,12.075,1.3283,5.8517,2.5765,11.7213,3.8908,17.576,0.3944,1.7535.8969,3.4819,1.3783,5.3316m-25.3425-52.41a4.0921,4.0921,0,0,0-1.2112,2.0982c-0.1361.56-.31,1.1122-0.4935,1.6592-0.5716,1.7084-1.2062,3.3968-1.7227,5.1212-0.6086,2.0321-1.086,4.1032-1.6816,6.1392-0.8338,2.8457-1.7277,5.6743-2.5885,8.513a11.3154,11.3154,0,0,0-.6386,3.0822,5.6918,5.6918,0,0,0,1.005.0531c1.53-.1994,3.064-0.3958,4.5834-0.6623,0.5836-.1022.96-0.6864,1.6766-0.6834,1.2162,0.006,2.4323-.1924,3.65-0.2916a2.1823,2.1823,0,0,0,1.84-.6613,6.489,6.489,0,0,0-.3373-1.9829c-0.35-1.0331-.6857-2.0771-0.9309-3.1383-0.6526-2.8236-.9039-5.7244-1.6086-8.541a19.4338,19.4338,0,0,1-.3754-2.484c-0.2422-2.0481-.4464-4.1022-0.7017-6.1492-0.0781-.6262-0.2733-1.2385-0.4644-2.0722"/><path class="cls-1" d="M61.7724,88.2739c-0.3784.3617-.7447,0.7125-1.1521,1.1013a10.267,10.267,0,0,1-.7437,4.7054,12.0871,12.0871,0,0,0-.5435,2.4459,3.7092,3.7092,0,0,1-1.46,2.4078c-0.3974.3257-.8238,0.6142-1.2592,0.9359-0.8608.0731-1.7527,0.1482-2.5234,0.2144-0.8869-.2816-1.6726-0.5431-2.4664-0.78a6.8964,6.8964,0,0,1-2.4514-1.0832,4.6337,4.6337,0,0,1-1.9889-4.3506c0.1662-1.5371.2032-3.0872,0.3333-4.6273a23.5838,23.5838,0,0,0-.5445-5.3767,33.9311,33.9311,0,0,0-3.4944-9.9939,16.3361,16.3361,0,0,0-2.9609-4.25,101.065,101.065,0,0,0-7.9687-7.3346c-2.022-1.6924-4.0649-3.3617-6.0839-5.0581a4.9816,4.9816,0,0,1-1.1081-1.991,2.0151,2.0151,0,0,1-.22-1.46,5.803,5.803,0,0,0-.034-1.9118,4.3067,4.3067,0,0,1,1.044-3.7284c0.2763-1.34,1.4014-1.991,2.3553-2.6993a26.8252,26.8252,0,0,0,4.7146-4.5551c0.7367-.8958,1.57-1.7114,2.3293-2.5882a13.2867,13.2867,0,0,0,1.6776-2.1132A29.0392,29.0392,0,0,0,40.8831,26.66a6.9745,6.9745,0,0,1,.1982-1.1443c0.7878-2.3336-.2-4.17-1.6966-5.7965a26.9862,26.9862,0,0,0-2.7577-2.4218,10.3168,10.3168,0,0,0-7.96-2.2084c-3.0469.3147-3.0429,0.3457-5.5073,1.98a6.4354,6.4354,0,0,0-2.1291,2.2154c-0.7147,1.2926-1.3723,2.6233-1.9669,3.9759a25.6132,25.6132,0,0,0-1.8478,6.8917,41.8523,41.8523,0,0,0,.22,10.04c0.5776,5.517,1.65,10.9779,1.8708,16.535,0.0941,2.3867.2843,4.7725,0.2793,7.1592-0.007,3.0451.37,6.0511,0.6256,9.0731,0.2943,3.471.4154,6.9569,0.6346,10.4348,0.0731,1.1573.1742,2.3156,0.3353,3.4639,0.2883,2.042.6556,4.0741,0.9389,6.1172a7.2573,7.2573,0,0,1-.009,1.9148,0.8683,0.8683,0,0,1-1.3293.81c0.0781,0.486.1481,0.7725,0.1622,1.0632a1.81,1.81,0,0,1-.08.7014c-0.1982.533-.4394,1.0491-0.6716,1.5892-0.5916.2044-1.2072,0.4168-1.9018,0.6563v0.9218a7.4027,7.4027,0,0,0-1.1551-.525,5.2985,5.2985,0,0,0-1.0971-.0771c-0.1411.2855-.2522,0.512-0.3834,0.7775a1.5266,1.5266,0,0,0-1.2983-.9128,1.1525,1.1525,0,0,1-1.2292-.76,0.6238,0.6238,0,0,0-.4474-0.3036,5.1988,5.1988,0,0,1-2.5585-1.541,8.7825,8.7825,0,0,1-3.5645-5.9328c-0.3023-2.4318-.6436-4.86-0.995-7.2855a26.7833,26.7833,0,0,0-.6436-3.6152A53.779,53.779,0,0,1,3.511,72.262c-0.3583-2.8166-.7047-5.6362-0.9609-8.4638a152.4267,152.4267,0,0,1-.992-20.2935c0.0961-2.2445.5565-4.4719,0.8208-6.7114,0.5065-4.2976,1.5515-8.4969,2.3022-12.75A33.55,33.55,0,0,1,11.6348,8.6995,10.9788,10.9788,0,0,1,14.42,6.04a10.13,10.13,0,0,0,1.067-1.0762A20.93,20.93,0,0,1,24.47.2446a9.3747,9.3747,0,0,1,4.7746.1372,17.112,17.112,0,0,1,6.03,2.519,2.3617,2.3617,0,0,0,.6777.37,16.9812,16.9812,0,0,1,5.5244,3.493,4.3344,4.3344,0,0,0,.7687.5861,12.6308,12.6308,0,0,1,4.173,3.92c0.9329,1.2354,1.9579,2.4018,2.8808,3.6442A14.4869,14.4869,0,0,1,50.5785,17.07a12.6987,12.6987,0,0,1,1.1481,6,40.5581,40.5581,0,0,1-1.033,8.6282c-0.4224,1.8176-.7057,3.6683-1.2742,5.4559-0.3313,1.0441-.6076,2.1051-0.9339,3.1512a4.0035,4.0035,0,0,1-.4635,1.0581q-2.2281,3.2735-4.4994,6.515a7.6748,7.6748,0,0,1-1.1251,1.3246,5.3763,5.3763,0,0,0-1.3883,2.2134,10.4455,10.4455,0,0,0,.8989,1.1333q2.29,2.2244,4.6235,4.4037A50.0991,50.0991,0,0,1,57.73,71.3983a16.9415,16.9415,0,0,1,1.7657,5.497,12.8507,12.8507,0,0,0,.3624,1.502,14.7894,14.7894,0,0,1,.4424,1.88,56.5652,56.5652,0,0,0,1.3763,7.016,7.1328,7.1328,0,0,1,.0951.9809"/><path class="cls-1" d="M116.0619,8.2569a2.4245,2.4245,0,0,1,2.5164,1.6142,13.32,13.32,0,0,1,.9019,2.5431,8.8042,8.8042,0,0,0,1.1721,3.2485,2.1467,2.1467,0,0,1,.2462,1.1c0.2573,3.6052.5405,7.2094,0.7277,10.8185,0.1261,2.4489.0871,4.9058,0.1642,7.3567,0.0631,1.9979.1291,3.998,0.2983,5.9879,0.2793,3.2775.6376,6.5491,0.9769,9.8216a13.8808,13.8808,0,0,0,.3223,2.0982c0.7267,2.7685.7087,5.6293,1.1091,8.4358,0.7037,4.9268.9029,9.8937,1.2873,14.8466,0.1842,2.3807.4214,4.7575,0.6967,7.1292a8.747,8.747,0,0,0,.5806,2.0381,1.1612,1.1612,0,0,0,1.1881.8186,3.3694,3.3694,0,0,1,.5776.029,1.5425,1.5425,0,0,1,1.4544.7475,4.0035,4.0035,0,0,0,1.3223.9308c-0.3333,1.2636.2683,2.4519,0.4124,3.7034,0.0771,0.6713.0761,0.6713-.5986,1.5431,0.09,0.5391.1842,1.1052,0.2713,1.63-0.65.9138-1.2632,1.7765-1.8968,2.6673-0.5615-.0381-1.063-0.0722-1.6556-0.1112a7.6855,7.6855,0,0,0-1.17,1.481,1.508,1.508,0,0,1-1.2612,1.026,1.5863,1.5863,0,0,0-1.3153.6543,0.8024,0.8024,0,0,1-.6887.2345c-0.98-.2244-1.9529-0.49-2.91-0.7986a1.2044,1.2044,0,0,1-.4965-0.5652,56.9455,56.9455,0,0,1-2.8357-5.045c-1.2092-2.6934-2.7987-5.2154-4.2962-7.9368a11.2747,11.2747,0,0,0-.8048.8617,31.8142,31.8142,0,0,1-4.7576,5.0631c-1.1211.97-2.1641,2.037-3.3342,2.9409a24.0219,24.0219,0,0,1-8.4242,3.7555,4.7319,4.7319,0,0,0-.7567.1473c-2.064,1.001-4.128.6032-6.204,0.0541-0.6807-.18-1.3753-0.3156-2.07-0.4389a6.4982,6.4982,0,0,1-3.134-1.41,34.6087,34.6087,0,0,1-9.65-13.1251,69.17,69.17,0,0,1-4.5684-15.9638c-0.7257-4.3887-1.13-8.8306-1.8388-13.2224-0.7207-4.47-1.008-8.9808-1.3363-13.4768a93.01,93.01,0,0,1-.3143-13.1532c0.1421-2.0571.1421-4.1242,0.19-6.1873,0.007-.3176-0.09-0.6373-0.11-0.9579-0.043-.7-0.0881-1.4018-0.0921-2.1032-0.002-.5151.1141-1.0341,0.0831-1.5451A18.1444,18.1444,0,0,1,67.26,10.9353a8.4223,8.4223,0,0,1,1.99-2.997A2.4072,2.4072,0,0,1,71.5428,7.33c0.4865,0.1122.979,0.13,1.46,0.2274a1.96,1.96,0,0,0,1.6626-.2685,2.8306,2.8306,0,0,1,.71-0.2946,1.5289,1.5289,0,0,1,2.2662,1.24,5.1919,5.1919,0,0,1-.044,1.9118,20.2838,20.2838,0,0,0-.3473,3.4488c-0.013,3.6793.007,7.36,0.0991,11.038,0.0521,2.0611.2783,4.1182,0.4184,6.1783,0.0871,1.2876.16,2.5762,0.2392,3.8637,0.1722,2.8336.3854,5.6653,0.5065,8.5009,0.15,3.4819.2733,6.9658,0.3133,10.4508a54.8094,54.8094,0,0,0,.6356,7.3226c0.1592,1.0852.3193,2.17,0.4634,3.2575a31.6863,31.6863,0,0,0,5.183,13.01A20.606,20.606,0,0,0,89.12,81.3886c2.3322,2.0341,7.3881,1.95,10.0087-.5751a7.2034,7.2034,0,0,0,.8148-1.0732,30.4218,30.4218,0,0,0,3.3032-6.7645c0.5305-1.3807.91-2.82,1.3563-4.2334a1.7253,1.7253,0,0,1,.2422-0.7254c0.9259-.8367.8729-2.012,0.976-3.0591,0.2863-2.8837,1.027-5.6973,1.05-8.6322,0.022-2.6963.4084-5.3937,0.6967-8.0851,0.1582-1.4709.4785-2.9239,0.6677-4.3928,0.28-2.1743.5135-4.3557,0.7577-6.535,0.2372-2.1162.5726-4.2285,0.67-6.3516a96.8518,96.8518,0,0,0-.0561-13.1362,8.9188,8.9188,0,0,1,.7948-4.522,2.96,2.96,0,0,1,2.28-2.0921,1.58,1.58,0,0,0,.7207-0.2175A11.0653,11.0653,0,0,0,115.07,9.7309a9.1611,9.1611,0,0,0,.992-1.4739"/><path class="cls-1" d="M213.7365,24.442c-0.0681-.4078-0.1682-0.8186.4334-0.9409a3.1,3.1,0,0,0-.004-0.65l-0.028.0311a6.057,6.057,0,0,0,.4324-0.6382c0.2542-.493-0.4274-1.2776.4865-1.5712,0.22-.6042.4574-1.2034,0.66-1.8136,1.1171-3.3637,2.2131-6.7344,3.3472-10.0921A6.1386,6.1386,0,0,1,220.55,6.1175a12.0038,12.0038,0,0,0,1.5015-2.24c0.3133-.483.6276-0.9649,0.8869-1.3607,1.3523-.59,2.3533.0752,3.3322,0.6543a3.1367,3.1367,0,0,1,1.5765,2.7475c0.8889,0.3737,1.8778.5812,2.3333,1.54a1.5332,1.5332,0,0,1,.3013.8617c-0.4815,1.2385.1351,2.1082,0.9539,2.9689-0.1331.3787-.2522,0.7345-0.3834,1.0862-0.7207,1.9308-1.4534,3.8577-2.1641,5.7915-0.6446,1.7545-1.3073,3.504-1.8868,5.2795-0.4585,1.4078-.8448,2.8427-1.1912,4.2836-2.4854,10.3426-4.9268,20.6962-7.4442,31.0308a50.9606,50.9606,0,0,1-1.9019,5.8857,40.2385,40.2385,0,0,0-1.6686,5.1282c-0.5836,2.51-1.3583,4.9749-2.0259,7.4659-0.2673.995-.4384,2.017-0.7057,3.013a27.2051,27.2051,0,0,1-1.052,3.509c-2.121,5.056-4.164,10.1412-5.88,15.3525-0.08.2425-.1972,0.4719-0.3143,0.7465-0.7037.3948-1.6326,0.3868-2.1771,1.0992-0.9829-.4249-1.8458.8386-2.8948,0.1763a3.2441,3.2441,0,0,0-1.4054-.03,2.2471,2.2471,0,0,0-2.057-1.3437c-0.7658.0842-1.64-.5611-2.3713,0.4158-1.3193-1.8817-2.7216-3.6282-3.3642-5.8426-0.2863-.989-0.63-1.9639-0.9869-2.93-1.3193-3.5711-2.4344-7.2073-3.5484-10.8466-1.3023-4.2544-2.7346-8.4688-4.0759-12.7123-0.7377-2.3326-1.5195-4.6483-2.3152-6.9619-1.2983-3.7736-2.2772-7.6563-3.3783-11.4969-0.5305-1.8547-1.033-3.7185-1.5455-5.5781a9.9419,9.9419,0,0,1-.33-1.3116,79.5432,79.5432,0,0,0-2.6-10.6913c-0.5425-1.9759-.7918-4.031-1.22-6.041-0.2813-1.3217-.5836-2.6463-0.99-3.9339a7.2343,7.2343,0,0,1-.2422-4.503,2.0281,2.0281,0,0,0,.033-0.9559,10.5729,10.5729,0,0,1,.5866-5.1182c0.2242-.7375.3744-1.497,0.58-2.3337a1.8024,1.8024,0,0,0,.6807-0.505,7.0162,7.0162,0,0,1,1.7907-2.1232,2.9439,2.9439,0,0,1,1.3843-.91,1.4181,1.4181,0,0,0,1.073-1.3707c3.068-1.002,2.2492-1.0491,4.8727.3467,0.1682,0.0892.3353,0.18,0.61,0.3276,0.7868,2.3708,1.7827,4.7475,2.42,7.2514,0.1421,0.5571.3734,1.0912,0.5636,1.6363,1.2542,0.514,1.1041,1.7474,1.3923,2.7474q1.6861,5.8512,3.3432,11.71c0.7868,2.7916,1.5395,5.5932,2.3112,8.39,0.5976,2.1673,1.2412,4.3226,1.7847,6.5039,0.3894,1.5591.6076,3.1613,0.9689,4.7284,0.9679,4.2054,1.9869,8.3987,2.95,12.6051,0.2563,1.1192.3213,2.2826,0.5826,3.4008,0.3063,1.3116.7207,2.5992,1.1081,3.8907,0.2212,0.7355.4844,1.4589,0.7327,2.1964,0.019,0.1112.035,0.2134,0.022,0.1333,0.009,0.0661-.006-0.05-0.021-0.1663a0.9963,0.9963,0,0,0,.5225-0.0441,2.5534,2.5534,0,0,0,.4254-0.8487c0.2823-.992.5145-1.998,0.7918-2.9919,0.9519-3.4128,1.8188-6.8527,2.9038-10.2234,0.8068-2.508,1.8938-4.9269,2.8688-7.3807a91.1288,91.1288,0,0,0,4.0389-12.4738c0.7918-3.32,1.6946-6.6132,2.5675-9.9138a13.8871,13.8871,0,0,1,.5435-1.42c-0.019.1193-.031,0.2315-0.044,0.3437,0.011-.1062.023-0.2134,0.0341-0.3206m5.4273,29.1561a1.1294,1.1294,0,0,0-.4184,1.46,0.5128,0.5128,0,0,0-.3373.8127c0.1191-.3387.2122-0.6033,0.2943-0.8838,0.1551-.4649.31-0.93,0.4664-1.3988V52.7955c-0.034.001-.0681,0.001-0.1021,0.002,0.032,0.2675.0651,0.5341,0.0971,0.8006m1.2152-6.6864c0.6857-.3046.4264-1.0581,0.7137-1.5631,0.021-.2535.041-0.506,0.062-0.76-0.0761.0091-.1531,0.0171-0.23,0.0261,0.07,0.26.1411,0.52,0.2112,0.78a0.7818,0.7818,0,0,0-.5766.6443c-0.031.3056-.1,0.6082-0.14,0.9248q-0.0841.2931-.1672,0.5851c0.0721,0.0081.1442,0.0161,0.2172,0.0231q-0.045-.3291-0.09-0.66m-0.3413,2.2505c-0.039-.02-0.0821-0.0431-0.1261-0.0662-0.027.0531-.054,0.1062-0.0821,0.1593,0.0691,0.03.1391,0.0612,0.2082,0.0912V49.1623ZM219.5831,51.06c0.014-.0431.0291-0.0871,0.043-0.13l-0.1391.0852,0.0961,0.0451m-2.0109,7.6232,0.059,0.1473,0.0571-.1493Z"/><path class="cls-1" d="M82.5678,262.2789c0.4214,0.0331.8638,0.0691,1.2992,0.1032,0.46-.3818.5966-1.26,1.4985-0.8677a0.9232,0.9232,0,0,0,.6917-0.2615c1.4584-1.2244,3.3372-1.6473,4.9368-2.6052a4.7142,4.7142,0,0,1,1.8448-.496c2.6866-.3116,5.3732-0.6563,8.0708-0.82a20.4633,20.4633,0,0,1,3.6375.4058,7.12,7.12,0,0,0,1.5255.1874c2.6626-.2716,4.9067.8,7.0608,2.1483a23.9424,23.9424,0,0,1,8.6624,9.9228,26.0378,26.0378,0,0,1,1.8948,4.8577c0.57,2.1052,1.3593,4.1583,1.8017,6.2865a18.5422,18.5422,0,0,1,.1892,4.4258,27.66,27.66,0,0,1-3.3673,11.5821,20.7812,20.7812,0,0,1-2.5465,3.6342c-0.7738.9419-1.6336,1.8026-2.3393,2.8146a23.39,23.39,0,0,1-2.1331,2.3367,8.2029,8.2029,0,0,0,.7507,1.1353c0.7037,0.7555,1.4584,1.4619,2.1841,2.1964a32.8583,32.8583,0,0,1,6.8887,9.9619c1.6346,3.7254,3.1991,7.46,4.4723,11.3286a42.3263,42.3263,0,0,1,1.8348,8.4909c0.1752,1.5381.3554,3.0791,0.4314,4.6232a33.2989,33.2989,0,0,1-.9469,8.6352c-0.1892.8827-.4064,1.7615-0.5676,2.6493a0.8644,0.8644,0,0,1-.7377.7886,5.9874,5.9874,0,0,0-3.5845,1.997,1.4113,1.4113,0,0,1-.5.2635,3.6517,3.6517,0,0,0-2.2182,1.2665c-0.6036-.4619-0.4184-1.511-1.2332-1.8116a0.7053,0.7053,0,0,1-.1311-0.5381,18.9836,18.9836,0,0,0-.42-4.98c-0.2642-1.6493-.2542-3.3427-0.3533-5.017-0.1281-2.1894-.2392-4.3787-0.3694-6.5681a11.683,11.683,0,0,0-.9149-3.7345c-1.1441-2.8056-2.1441-5.6753-3.39-8.4338a45.0858,45.0858,0,0,0-6.7936-10.7554,12.1045,12.1045,0,0,0-6.18-3.7354,25.94,25.94,0,0,0-3.0209-.6623,6.1273,6.1273,0,0,1-2.9469-1.6763,2.32,2.32,0,0,1-.8238-2.2435c0.1772-1.2595.4975-2.499,0.7367-3.75a4.4485,4.4485,0,0,1,1.8178-2.8517,9.1975,9.1975,0,0,1,3.1631-1.7575,11.8014,11.8014,0,0,0,4.8967-2.5882c1.9449-1.6854,4.095-3.1443,5.6925-5.2074,0.5916-.7645,1.2152-1.51,1.7347-2.3216a9.2408,9.2408,0,0,0,1.3173-4,20.37,20.37,0,0,0-1.9529-10.526,7.7356,7.7356,0,0,0-1.7427-2.5331,25.5791,25.5791,0,0,1-1.7707-2.0431,4.0211,4.0211,0,0,0-1.8488-1.3356c-0.85-.2856-1.6506-0.7184-2.4794-1.0711-2.5284-1.0782-5.173-.9479-7.8126-0.6774-1.4074.1453-2.7987,0.4409-4.1971,0.6714a1.4114,1.4114,0,0,0-.3744.0912,12.4918,12.4918,0,0,0-4.4883,3.2765c-1.6766,2.0581-1.7417,2.6924-1.6486,5.36,0.1321,3.8046.2723,7.61,0.3463,11.4157,0.1422,7.3567.2382,14.7143,0.3574,22.072,0.0581,3.61.18,7.22,0.1692,10.83-0.009,2.8377-.2152,5.6733-0.2642,8.512-0.041,2.3827.015,4.7675,0.034,7.1512,0.012,1.483-.003,2.9669.0641,4.4479,0.0651,1.4148.2182,2.8266,0.3363,4.2395,0.1291,1.5391.2432,3.08,0.3974,4.6172,0.1732,1.7244-.58,3.2865-0.8208,4.9378a0.6783,0.6783,0,0,1-.3133.4619c-1.1131.489-1.7487,1.6022-2.8588,2.11-1.77.81-3.34,0.8908-4.9478-.508a12.7741,12.7741,0,0,1-3.2431-4.7064,29.5672,29.5672,0,0,1-2.083-6.8286,30.1851,30.1851,0,0,1-.5826-4.4008c-0.1081-4.8376-.1211-9.6793-0.1361-14.5189q-0.018-5.6092.0541-11.2183c0.025-1.8036.1692-3.6062,0.2593-5.4088,0.048-.9659.1421-1.9329,0.1341-2.8988-0.025-2.7845.4224-5.53,0.64-8.2935,0.1662-2.1212.4334-4.2344,0.5966-6.3556,0.2773-3.6022.6276-7.1953,1.1942-10.7634,0.2933-1.8447.6226-3.6833,0.9439-5.524a6.701,6.701,0,0,1,.26-1.1292,17.7185,17.7185,0,0,0,.8989-6.6633,10.9258,10.9258,0,0,1,.3-2.6673,3.5349,3.5349,0,0,1,1.4434-2.3767,9.1019,9.1019,0,0,0,1.6206-2.1042"/><path class="cls-1" d="M44.2982,347.98c-0.027-.2485-0.053-0.497-0.0881-0.8316H42.7417c0.5385-.5291.8849-0.87,1.4094-1.3848H42.1492c0.5095-.3387.6827-0.48,0.8768-0.58a35.7051,35.7051,0,0,0,3.4183-1.7776,14.66,14.66,0,0,0,2.4123-2.1763c0.8879-.93,1.6976-1.9368,2.53-2.9188a1.145,1.145,0,0,0,.3854-0.6363,3.57,3.57,0,0,1,.85-2.484,1.3977,1.3977,0,0,0,.1842-0.73,32.4623,32.4623,0,0,0-.54-6.1432A32.4682,32.4682,0,0,0,50.8,324.1244a40.1768,40.1768,0,0,0-3.2742-6.3517,15.2283,15.2283,0,0,0-4.6145-4.6082,43.7911,43.7911,0,0,0-5.0639-2.8156,17.0823,17.0823,0,0,0-6.5-1.6974,6.3958,6.3958,0,0,1-1.1331-.2064,3.4822,3.4822,0,0,0-2.2612.1513c-0.8839.3728-.9829,0.2665-1.5765-0.7385a4.83,4.83,0,0,0-.5325-0.7535,4.7141,4.7141,0,0,1-.98-3.4258,5.0668,5.0668,0,0,1,1.1031-3.5351c1.4674-1.5371,2.8317-3.1723,4.2411-4.7645a13.1022,13.1022,0,0,0,3.129-5.4789,38.41,38.41,0,0,0,1.3283-6.8156,7.8385,7.8385,0,0,0-2.8858-6.8386c-0.1952-.1683-0.4244-0.3-0.6046-0.4819a8.5653,8.5653,0,0,0-6.6865-2.4479A9.0214,9.0214,0,0,0,17.199,277.65a14.8271,14.8271,0,0,0-1.8208,5.0551c-0.2232,1.2014-.6156,2.3707-0.8578,3.5691a37.0115,37.0115,0,0,0-.4284,9.4408c0.1491,2.7054.2983,5.41,0.5035,8.1112,0.1171,1.5481.036,3.0932,0.0631,4.6373,0.044,2.511.3143,5.018,0.4775,7.527,0.2092,3.2194.4514,6.4378,0.5926,9.66,0.0821,1.8677-.005,3.7434-0.018,5.6152a5.549,5.549,0,0,1-.032.9669,57.6132,57.6132,0,0,0-.4274,8.3066c-0.0651,1.6663.1051,3.3416,0.17,5.013,0.007,0.1934.025,0.3868,0.023,0.58-0.013,1.4288-.4264,1.8657-1.7067,2.4719a7.29,7.29,0,0,1-4.8727.3136,7.7565,7.7565,0,0,1-3.061-1.0912,8.4784,8.4784,0,0,0-.9269-2.18,7.1786,7.1786,0,0,1-.6757-2.7865,74.2613,74.2613,0,0,1-.5475-11.017q0.1561-12.296.57-24.5879c0.1491-4.2535.5856-8.4979,0.91-12.7454a41.56,41.56,0,0,0,.022-7.1553,21.39,21.39,0,0,1,.0741-4.2485,36.0293,36.0293,0,0,0,.17-5.2164c-0.0721-1.6693.3624-3.35-.1161-5.01a0.96,0.96,0,0,1,.1582-0.5451,15.5494,15.5494,0,0,1,1.3313-2.9879A7.796,7.796,0,0,0,7.7,267.231a3.3788,3.3788,0,0,1,1.4174-1.7605c0.9569-.6493,1.8588-1.3788,2.8037-2.0461a10.9675,10.9675,0,0,1,1.4774-.8928,15.6309,15.6309,0,0,0,4.8217-3.1393,4.85,4.85,0,0,1,1.8768-.9329,7.54,7.54,0,0,1,1.5155-.2936,29.1114,29.1114,0,0,1,9.4281-.1743,15.4482,15.4482,0,0,1,7.0678,3.4228A23.8046,23.8046,0,0,1,45.44,271.6839a23.2252,23.2252,0,0,1,1.3873,4.42,14.8219,14.8219,0,0,1-.0591,5.7615,11.667,11.667,0,0,0-.4024,4.024c0.3864,3.2515-.5836,6.2445-1.84,9.1763-0.2763.6453-.4714,1.3256-0.7627,1.9629-0.2352.514-.5575,0.989-0.8939,1.5742,0.2533,0.1533.5055,0.3347,0.7808,0.47,2.8347,1.3878,5.7476,2.6342,8.4872,4.1874a20.6786,20.6786,0,0,1,6.7385,6.2715,27.8926,27.8926,0,0,1,4.6265,11.3817,25.58,25.58,0,0,1-.2012,10.567,7.3309,7.3309,0,0,1-.6787,1.8006,4.7629,4.7629,0,0,0-.8278,2.1342,1.9992,1.9992,0,0,1-.2643.7164c-0.7137,1.506-1.4284,3.011-2.1581,4.509a11.5051,11.5051,0,0,1-.7587,1.3387,0.6835,0.6835,0,0,1-.8488.2725c-0.015-.1042-0.03-0.2054-0.044-0.3066,0.012,0.1072.025,0.2134,0.037,0.3206-0.6346.1132-.9089-0.2415-1.056-0.9218-0.8518.7335-1.9619,0.9789-2.6386,1.9088a1.8137,1.8137,0,0,1-1.3733.5731,2.8285,2.8285,0,0,0-2.3363,1.1483c-0.005.007,0.039-.0431,0.039-0.0431-1.4174.7886-3.0179,1.24-4.2481,2.3717a3.3344,3.3344,0,0,1-1.8628.7094Zm-0.52-53.4745a0.2688,0.2688,0,0,0-.1351-0.0431,0.4392,0.4392,0,0,0-.1161.1283,0.2822,0.2822,0,0,0,.1361.0441,0.44,0.44,0,0,0,.1151-0.1293"/><path class="cls-1" d="M213.8645,358.7493c-0.4.0762-.7057,0.1263-1.008,0.1934a2.0238,2.0238,0,0,1-.5145.1463c-0.5906-.82-1.7177-0.513-2.3573-1.1272a2.0649,2.0649,0,0,0-1.5415-.5321,4.4511,4.4511,0,0,1-4.157-2.8807,14.6111,14.6111,0,0,1-1.37-8.8286,17.2076,17.2076,0,0,0,.059-1.7365c0.1181-1.3467.2362-2.6944,0.4124-4.034,0.2352-1.7876.5435-3.5651,0.7868-5.3517,0.2523-1.8507.4574-3.7084,0.6957-5.56,0.18-1.4078.4034-2.81,0.5645-4.2194,0.1171-1.021.1732-2.05,0.24-3.0761,0.0631-.9639.051-1.9359,0.1642-2.8928,0.3113-2.6242.6766-5.2415,1.01-7.8627,0.2693-2.11.5255-4.2214,0.7858-6.3326,0.2683-2.1763.5255-4.3537,0.8038-6.529,0.0991-.7665.22-1.5331,0.3773-2.29,0.7207-3.4729,1.49-6.9348,2.1721-10.4147,0.2843-1.4509.3914-2.9359,0.5846-4.4058a14.66,14.66,0,0,1,.2542-1.7184c0.4144-1.6252.6907-3.27,0.9709-4.9228a21.955,21.955,0,0,1,1.5745-4.7615,33.98,33.98,0,0,1,4.3312-7.2855,2.5324,2.5324,0,0,1,2.2922-1.1423c2.056,0.0892,4.115.1543,6.173,0.1623a1.3421,1.3421,0,0,1,1.3133.6132c1.6846,2.9559,4.2231,5.4068,5.186,8.7885a133.692,133.692,0,0,1,5.4693,14.2624,187.8516,187.8516,0,0,1,6.134,21.1662c1.1491,5.1593,2.1661,10.3456,3.0039,15.57,0.3453,2.1543,1.037,4.2525,1.5725,6.3757,0.6476,2.5621,1.2452,5.1383,1.9609,7.6813a46.4329,46.4329,0,0,0,2.7226,7.2264c1.1261,2.3878,2.076,4.8587,3.101,7.2935,0.25,0.5942.4945,1.1894,0.7928,1.9088a8.6707,8.6707,0,0,1-1.9689,3.2825,5.4632,5.4632,0,0,0-.7617,1.1032,7.5225,7.5225,0,0,1-.4725.8176,7.9324,7.9324,0,0,1-.7918.75,1.6392,1.6392,0,0,1-1.4074-.975c-0.7637-1.1934-1.48-2.4178-2.2432-3.6122-0.7257-1.1363-1.5575-2.2094-2.2131-3.3827a27.8969,27.8969,0,0,1-2.104-4.3336c-1.5045-4.3216-2.87-8.6923-4.3022-13.04a43.96,43.96,0,0,1-1.6786-6.55,4.7862,4.7862,0,0,0-.8668-2.5731,9.8819,9.8819,0,0,0-3.2422.1954,66.6593,66.6593,0,0,0-11.7534,3.1012c-1.4394.5531-2.9629,0.8858-4.4373,1.3507a14.0707,14.0707,0,0,0-3.4974,1.4168c-0.0681,1.1182-.1592,2.2675-0.2032,3.42-0.1582,4.1252-.2282,8.2544-0.4735,12.3747-0.1571,2.6363-.5615,5.2585-0.8548,7.8867-0.0651.5771-.1371,1.1543-0.1862,1.7325a6.1227,6.1227,0,0,1-1.1021,3.5521m11.5742-80.309a18.8548,18.8548,0,0,0-.8708,1.99q-1.081,3.508-2.075,7.043c-0.6446,2.2946-1.18,4.6212-1.8808,6.8968a25.1751,25.1751,0,0,0-.8748,3.9549q-1.1576,8.3281-2.3193,16.6542a2.01,2.01,0,0,0,.2893,1.7485c6.0779-1.4389,12.0136-3.5962,18.2076-4.7354a4.8348,4.8348,0,0,0,.9489-0.4158,10.8715,10.8715,0,0,0-.1982-1.5461c-0.4294-1.5491-.9249-3.08-1.36-4.6282s-0.7687-3.1272-1.2552-4.6583c-1.2882-4.0511-2.5885-8.0991-3.9728-12.1172-1.028-2.9819-2.2-5.9138-3.2992-8.8717a1.734,1.734,0,0,0-1.3393-1.3146M217.62,317.4681c0.8948,0.0581.8948,0.0581,1.08-.4839a5.6268,5.6268,0,0,0-.5545.1783,5.3677,5.3677,0,0,0-.5255.3056"/><path class="cls-1" d="M148.9193,101.9384c-0.5736-.54-0.989-0.9309-1.4794-1.3928-0.3293.02-.7537,0.0471-1.2992,0.0812-0.3754-1.4769-.7778-2.8908-1.0881-4.3246-0.4234-1.9529-.8208-3.9128-1.1491-5.8828a84.3842,84.3842,0,0,1-.7287-9.8346c-0.3534-7.2825-.5856-14.571-0.8628-21.8565-0.0691-1.8056-.1942-3.6122-0.1662-5.4158,0.037-2.3848.1922-4.7675,0.3093-7.15,0.1141-2.3186.2492-4.6362,0.3644-6.9559,0.0981-1.995.19-3.991,0.2653-5.9879a21.235,21.235,0,0,0-.015-2.1272c-0.3073-4.8938-.6326-9.7855-0.9459-14.6782-0.045-.7075.001-1.4239-0.0831-2.1253a12.4867,12.4867,0,0,1,1.67-7.5871c1.7037-.2414,3.1581-1.2294,4.7716-1.7906,0.8809-.3066,1.6466-0.991,2.6836-0.8256a0.9494,0.9494,0,0,0,.4715-0.2676,1.6817,1.6817,0,0,1,.4174-0.3246c1.2122,0.6683,1.55-.3507,1.9919-1.0892,0.5035,0.0852.9369,0.1583,1.4494,0.2445a7.31,7.31,0,0,1,1.21,3.5491,17.993,17.993,0,0,0,.3273,3.8467c0.53,2.54.3634,5.1212,0.6276,7.6733,0.1521,1.476.3093,2.9519,0.51,4.4218a47.5117,47.5117,0,0,1,.2292,8.5029c-0.0591,1.3537-.1231,2.7094-0.1261,4.0631-0.018,8.6483-.0631,17.2965-0.006,25.9437,0.024,3.5461.3043,7.0891,0.4214,10.6342,0.1081,3.2866.1471,6.5751,0.2322,9.8627,0.08,3.0922.2693,6.1853,0.2352,9.2755a28.8126,28.8126,0,0,1-.6717,4.5751,1.42,1.42,0,0,1-1.2672,1.2355,3.1426,3.1426,0,0,0-1.91,1.4509,6.4763,6.4763,0,0,1-2.7477,2.2484,0.9752,0.9752,0,0,1-.8568.016c-0.9469-.3086-1.003-0.2414-1.6666.6593-0.3013.4078-.6516,0.78-1.1181,1.3327m6.3491-79.3962a0.9163,0.9163,0,0,0-.3483,1.4108c0.4554-.4629.7788-0.8006,0.3483-1.4108"/><path class="cls-1" d="M32.2371,356.8493c-0.7447.2746-1.39,0.523-2.044,0.7485a11.6717,11.6717,0,0,1-1.4444.4349,1.8167,1.8167,0,0,1-2.2232-.982,16.5865,16.5865,0,0,0-2.2392-2.5561c0.4564-.6553,1.2792-0.5171,2.2021-0.5962-0.7838-.3527-1.3953-0.6273-2.089-0.94a2.3416,2.3416,0,0,1,2.115-.2425,15.7368,15.7368,0,0,1,3.8487,1.1072,8.4142,8.4142,0,0,0,2.7707.4349c0.029,0.2014.07,0.492,0.1121,0.7826,0.7868,0.492,1.5765-.1974,2.8267-0.05-1.6086.4469-2.7877,0.7335-3.9348,1.1132-0.4164.1383-.3453,0.483,0.0991,0.7455"/><path class="cls-1" d="M51.694,344.7919c-0.1341.7565-.2362,1.52-0.42,2.2635a1.4452,1.4452,0,0,1-.5145.7856c-1.5295,1.0651-3.082,2.0952-4.6425,3.1132a1.2409,1.2409,0,0,1-.5565-0.1583c0.5125-.9459,1.8528-0.8587,2.118-1.9319-0.3383-.6794-0.7717.3888-1.1221-0.0541a0.3645,0.3645,0,0,1-.01-0.1784,14.4375,14.4375,0,0,1,2.3383-1.8236,3.0391,3.0391,0,0,0,1.5035-1.8717c0.005-.006-0.039.0451-0.033,0.0381,0.4945,0.4329.9069-.0491,1.3543-0.1182l-0.015-.0641m-1.076,2.1142,0.1121-.0521-0.1121-.0511v0.1032Z"/><path class="cls-1" d="M41.1206,351.52a2.1332,2.1332,0,0,1-.5265.508c-1.4074.6062-2.8287,1.1834-4.2481,1.7645a2.1432,2.1432,0,0,1-1.6386.1153,9.3406,9.3406,0,0,1,3.132-1.3878c1.1111-.29,2.2031-0.6513,3.3122-0.9749,0.008,0.007-.031-0.0251-0.031-0.0251"/><path class="cls-1" d="M43.6683,350.1786c0.1882,0.018.3764,0.0351,0.5725,0.0531a3.0127,3.0127,0,0,1-3.114,1.2946c-0.006-.006.032,0.0261,0.024,0.0191,0.5776-.35,1.1631-0.6934,1.7487-1.0371l-0.0531.0531a0.8587,0.8587,0,0,0,.8388-0.4349Z"/><path class="cls-1" d="M44.668,353.6313q-0.7582.2811-1.5155,0.5631a1.2309,1.2309,0,0,1,1.5155-.5631"/><path class="cls-1" d="M44.3063,352.6476c0.1091-.83.1091-0.83,0.997-0.9188,0.001,0.6964-.7067.6092-1.01,0.94Z"/><path class="cls-1" d="M37.3489,354.5755a1.5994,1.5994,0,0,1,.17.003,0.2109,0.2109,0,0,1,.019.0742,1.605,1.605,0,0,1-.17-0.006,0.2044,0.2044,0,0,1-.019-0.0712"/><polygon class="cls-1" points="41.568 354.548 41.53 354.656 41.398 354.59 41.568 354.548"/><path class="cls-1" d="M51.6942,344.7924l0.015,0.0631c0.15-.0521.3013-0.1022,0.4524-0.1533-0.016.0892-.033,0.1774-0.049,0.2666-0.14-.0591-0.2793-0.1172-0.4184-0.1764"/><polygon class="cls-1" points="46.88 352.265 47.026 352.231 47.006 352.335 46.88 352.265"/><polygon class="cls-1" points="39.087 354.178 39.252 354.217 39.117 354.275 39.087 354.178"/><polygon class="cls-1" points="38.844 355.316 38.813 355.414 38.704 355.355 38.844 355.316"/><path class="cls-1" d="M44.2827,348.0124c-0.0491-.0371-0.0991-0.0731-0.1482-0.11,0.0541,0.025.1081,0.0491,0.1632,0.0761l-0.015.0341"/><path class="cls-1" d="M42.9023,350.17a0.5568,0.5568,0,0,1,.7657.009l0.017-.0521c-0.2813-.002-0.5615-0.003-0.8428-0.004Z"/><path class="cls-1" d="M42.9,350.508c-0.1552-.0471-0.31-0.0952-0.4645-0.1423,0.1551-.0651.3113-0.13,0.4665-0.1954l-0.0591-.0471c0.001,0.1463.003,0.2926,0.004,0.4389Z"/><path class="cls-1" d="M44.2934,352.6685c-0.0921-.031-0.1852-0.0611-0.1892-0.0631,0.006,0.001.1031,0.022,0.2012,0.0421Z"/><path class="cls-1" d="M214.1657,22.8511c0.018-.1413.036-0.2835,0.054-0.4248a0.2675,0.2675,0,0,1,.0651.1282,2.2178,2.2178,0,0,1-.14.3206c-0.007.007,0.021-.0241,0.021-0.0241"/><path class="cls-1" d="M120.3275,488.6032c-0.3043-.61-0.5-1.015-0.7067-1.4138a4.8808,4.8808,0,0,1-.6116-2.5912c0.1061-1.8016.1451-3.6072,0.2032-5.4118q0.1141-3.5756.2142-7.1532c0.018-.6443.01-1.29,0.046-1.9329,0.3163-5.6082.2342-11.2143,0.017-16.8255-0.2593-6.7064-.5145-13.4157-0.6046-20.1271-0.1-7.4839-.0541-14.97.019-22.4547,0.023-2.3146.3183-4.6272,0.5305-6.9378,0.1231-1.3447.3163-2.6843,0.4985-4.023a6.2716,6.2716,0,0,1,1.8338-3.7094,1.9153,1.9153,0,0,0,.3714-0.4409,8.3726,8.3726,0,0,1,3.6315-3.2234c0.1021-.0581.1942-0.1343,0.3163-0.22a4.2729,4.2729,0,0,1,1.5715,1.3617,39.1974,39.1974,0,0,1,6.0458,8.4789c1.8468,3.4729,3.8287,6.8737,5.6815,10.3436,2.6746,5.009,4.92,10.22,7.18,15.4277,2.5935,5.9789,4.9708,12.041,7.3591,18.101,1.8668,4.7374,3.7156,9.4859,5.72,14.1662,1.5225,3.5541,3.2682,7.012,4.9328,10.5049,0.4925,1.0351,1.044,2.0421,1.6356,3.1914a3.1883,3.1883,0,0,0,.6136-2.11,53.67,53.67,0,0,0-.2392-8.6943c-0.041-.2545-0.0651-0.512-0.0821-0.77q-0.8408-12.6432-1.6846-25.2874c-0.2512-3.6683-.5776-7.3316-0.8388-11-0.2192-3.0892-.3784-6.1823-0.5966-9.2715-0.14-1.995-.3864-3.9829-0.4985-5.9779-0.2222-3.93-.3844-7.8637-0.57-11.7955-0.013-.2575-0.001-0.518-0.027-0.7735a20.7154,20.7154,0,0,1-.3133-3.2635,14.8,14.8,0,0,1,.7127-3.1914,3.7006,3.7006,0,0,1,.7708-1.522c0.6606-.6813,1.0891-1.5962,2.056-2.002a3.1744,3.1744,0,0,0,.9359-0.9559,0.802,0.802,0,0,1,1.1691-.2345,2.3174,2.3174,0,0,0,1.005-.3347,2.4033,2.4033,0,0,1,.7938.4549,9.8716,9.8716,0,0,1,2.7967,6.4c0.042,1.7395.0941,3.4889,0.3033,5.2144,0.3484,2.89.3934,5.7875,0.4945,8.6873,0.06,1.7384.28,3.4719,0.4334,5.2064,0.3564,4.05.6256,8.1021,0.7037,12.1723,0.0711,3.7375.3844,7.47,0.6036,11.2043,0.1361,2.3186.3594,4.6342,0.4294,6.9549,0.0881,2.9058.4394,5.7855,0.6636,8.6783,0.1942,2.509.3583,5.02,0.5225,7.531,0.2112,3.2194.3814,6.4418,0.6176,9.6592a35.5138,35.5138,0,0,1-1.001,10.546,3.0092,3.0092,0,0,1-.2673.7214,14.9545,14.9545,0,0,1-4.5834,5.8416c-0.68.4639-1.073,1.2284-1.9539,1.523a9.7171,9.7171,0,0,1-2.5885.6964,1.48,1.48,0,0,0-1.6356,1.2244,1.3545,1.3545,0,0,1-1.4724-.4469c-2.5044-2.5972-5.187-5.046-7.0428-8.1953-0.5856-.993-1.073-2.0481-1.5585-3.0972-0.3233-.7-0.55-1.4459-0.8448-2.16-2.018-4.8877-3.9789-9.8-6.0849-14.6492-2.21-5.0851-4.5964-10.0941-6.84-15.1652-1.3543-3.0641-3.0069-5.9919-4.146-9.1532a6.5149,6.5149,0,0,0-1.5835-2.5731,0.6977,0.6977,0,0,0-.3313.8567c-0.041,4.1944-.1321,8.3867.2022,12.5791,0.1692,2.1192.0851,4.2585,0.1531,6.3867q0.2327,7.3511.5045,14.7013a20.3168,20.3168,0,0,1-.7687,6.89,19.2969,19.2969,0,0,0-.4454,2.08,8.981,8.981,0,0,1-1.1891,3.2475,3.574,3.574,0,0,0-.4114.8707,25.2975,25.2975,0,0,1-3.4834,6.4428,9.9426,9.9426,0,0,0-.6586.9549c-1.1,2.1533-3.0059,3.033-5.3332,3.4459-0.4394-.7786-0.8208-1.5771-1.3153-2.2966a2.4173,2.4173,0,0,0-1.9809-1.3607"/><path class="cls-1" d="M252.8623,602.8555c0.051-.2435.1752-0.5421-0.1712-0.63a0.5255,0.5255,0,0,0-.4314.2856c-0.2673,1.1743-.5175,2.3537-0.7277,3.539a1.5077,1.5077,0,0,0,.8368,1.3888l-0.022-.0341a2.6615,2.6615,0,0,0-.3734.6633c-0.8218,3.7014-3.2351,6.2174-6.2,8.2975a98.3628,98.3628,0,0,1-9.2239,5.6613,9.1308,9.1308,0,0,1-4.7176,1.496,7.0745,7.0745,0,0,0-2.78.9279c0.2513,0.2946.4434,0.518,0.7277,0.8507a4.5967,4.5967,0,0,1-3.0169.6483,32.0094,32.0094,0,0,0-5.8907-.79,11.655,11.655,0,0,1-5.9568-1.3407,19.6707,19.6707,0,0,1-7.3361-6.7154c-1.1211-1.73-2.1381-3.529-3.1671-5.3176a14.23,14.23,0,0,1-.7748-1.77c-0.4344-1.0741-.7707-2.1974-1.3052-3.2174a2.01,2.01,0,0,1-.0651-2.026,5.1125,5.1125,0,0,1-1.3153-2.5821,13.9257,13.9257,0,0,0-.7117-2.004,5.1217,5.1217,0,0,1-.5025-2.4128,7.1893,7.1893,0,0,0-.5455-2.4308,10.1022,10.1022,0,0,1-.6937-3.5791,10.0915,10.0915,0,0,0-.2923-2.1032,110.983,110.983,0,0,1-1.2132-24.8936,63.3934,63.3934,0,0,1,1.8077-12.4247c0.7858-2.7886,1.5685-5.5931,2.6015-8.2945a23.4421,23.4421,0,0,1,8.4282-10.6031,14.932,14.932,0,0,1,2.8938-1.5461A31.5447,31.5447,0,0,1,223.18,529.328c0.4494-.03.8979-0.0812,1.3423-0.1543,1.5845-.2605,3.1661-0.5441,4.7526-0.7976a2.3581,2.3581,0,0,1,1.1451-.0291c1.8458,0.7315,3.9288.6222,5.6775,1.7715a19.967,19.967,0,0,0,3.3412,1.4409,0.903,0.903,0,0,0,.3053-0.8457h-0.006a2.0081,2.0081,0,0,0,2.1661.8577,1.0135,1.0135,0,0,1,.7077.1463,6.0155,6.0155,0,0,1,1.2142.95c1.1221,1.2294,2.2011,2.499,3.3122,3.7685-0.021.495-.6766,0.9339-0.08,1.54a2.6036,2.6036,0,0,1,.4344,1.2395,24.1034,24.1034,0,0,1,.6076,3.2254c0.1572,2.0541.2513,4.1182,0.2282,6.1773a8.1892,8.1892,0,0,1-.6346,2.4168,2.5149,2.5149,0,0,1-1.43,1.491c-1.2.4749-2.2522,1.1924-3.3833,1.7735a2.0554,2.0554,0,0,1-.91.2214,1.218,1.218,0,0,1-.8478-0.2315c-0.3624-1.2345-2.1991-.5761-2.4233-1.9439-0.051-.3116-0.2513-0.5982-0.3143-0.91a14.3947,14.3947,0,0,0-2.7587-5.49c-1.1681-1.6172-2.4884-3.1252-3.77-4.6583a11.6129,11.6129,0,0,0-4.0529-2.9178,3.1978,3.1978,0,0,0-3.6355.3467,34.5091,34.5091,0,0,0-3.9939,3.6362,30.8894,30.8894,0,0,0-4.9168,7.6011,2.1846,2.1846,0,0,1-.2553.52c-1.3042,1.5461-1.5175,3.505-2.041,5.3487-0.2112.7435-.4394,1.483-0.67,2.22a5.6008,5.6008,0,0,0-.3183.9078,43.2121,43.2121,0,0,0-.8338,6.6993c0.015,0.515-.0491,1.0311-0.039,1.5461,0.036,1.995.0691,3.991,0.14,5.9859,0.043,1.22.1331,2.4409,0.2382,3.6583,0.2042,2.3767.4424,4.75,0.6456,7.1282,0.0821,0.9579.0581,1.9278,0.1772,2.8817,0.1672,1.3407.4214,2.67,0.6406,4.005,0.2292,1.3958.4484,2.7936,0.6977,4.1863a17.4254,17.4254,0,0,0,.5025,2.26c0.9059,2.82,1.7457,5.6683,2.8177,8.4248,0.8388,2.1553,1.96,4.2034,3.0109,6.27a10.8506,10.8506,0,0,0,1.2432,1.7164c0.5125,0.6473,1.056,1.27,1.7887,2.1453a8.54,8.54,0,0,0,4.4543.1032,29.6954,29.6954,0,0,0,4.2871-1.1393,2.6058,2.6058,0,0,0,1.2342-.8587,22.2458,22.2458,0,0,0,2.117-3.2214c0.9559-1.8958,1.78-3.86,2.6105-5.8156a6.6117,6.6117,0,0,0,.3954-1.6874,19.7061,19.7061,0,0,1,.91-4.3416,6.2037,6.2037,0,0,0,.18-1.2335,7.4937,7.4937,0,0,0-1.36-.1844c-1.026.0541-2.05,0.1613-3.071,0.2856a1.3209,1.3209,0,0,1-1.51-.5531,1.2327,1.2327,0,0,0-1.1861-.508,1.732,1.732,0,0,1-1.9869-1.6383,3.0827,3.0827,0,0,0-.3213-0.7445,8.2634,8.2634,0,0,1,3.7206-3.7625,2.6661,2.6661,0,0,0,1.57-1.3347,1.5864,1.5864,0,0,1,.9589-0.5511c1.3593-.3978,2.7226-0.7936,4.103-1.1082a42.7131,42.7131,0,0,1,9.1639-1.2866,3.0639,3.0639,0,0,0,.7687-0.0621c2.1741-.5872,4.35-0.2555,6.5273-0.0481,0.6406,0.0611,1.2852.0822,1.9279,0.0972,1.8027,0.0421,3.6135-.024,5.4052.1333,1.5885,0.14,3.1551.524,4.9638,0.8407-0.6166.501-1.072,0.87-1.5775,1.2806a0.6742,0.6742,0,0,0,.4.86,1.9233,1.9233,0,0,1,1.2953,1.1723c-0.3133.6122-.5886,1.1533-0.9419,1.8457,0.0741-.0411-0.028.0571-0.1391,0.0711-1.3363.1593-1.4024,0.2936-.7067,1.4709a6.2277,6.2277,0,0,1-2.2592,1.6162,19.3756,19.3756,0,0,1-7.5163,1.4469c-0.6386.0341-1.2752,0.0962-1.9279,0.1463a11.0665,11.0665,0,0,1-1.5155,2.488,4.6158,4.6158,0,0,0-.7277,2.1433,1.7116,1.7116,0,0,1-.4234,1.0341Zm-1.2872.8988,0.1311,0.014-0.0531-.14Z"/><path class="cls-1" d="M3.1983,488.1177a3.9081,3.9081,0,0,1-1.3763-3.0591c-0.36-4.0451-.7768-8.0891-0.7407-12.16,0.0581-6.7074.0611-13.4157,0.1571-20.1221,0.0521-3.61.2753-7.2174,0.3734-10.8266,0.0531-1.9339-.007-3.87.007-5.8046,0.018-2.5781.1221-5.1573,0.0761-7.7334-0.0761-4.1913-.1081-8.3907-0.4154-12.567-0.2362-3.2234-.2673-6.4408-0.3553-9.6633-0.045-1.6082-.2472-3.2124-0.4044-4.8166C0.4,400.1475.2945,398.923,0.08,397.7206a13.52,13.52,0,0,1,.2342-3.8356,1.9589,1.9589,0,0,1,.6286-1.1513,17.151,17.151,0,0,1,3.9138-3.1052,3.0355,3.0355,0,0,0,.9139-0.6944,2.7023,2.7023,0,0,1,2.4664-.7936c0.51,0.0591,1.014.18,1.52,0.2746a4.6405,4.6405,0,0,0,1.1341.1974,23.0863,23.0863,0,0,1,3.0319.2675,8.5909,8.5909,0,0,1,2.9409.8086q3.3768,1.4384,6.7365,2.9168a6.8779,6.8779,0,0,1,1.3323.7675q2.32,1.74,4.6025,3.531a48.6371,48.6371,0,0,1,6.1329,6.1372c1.3223,1.492,2.6826,2.9629,3.8687,4.56a26.967,26.967,0,0,1,2.4714,4.1352c0.997,2.02,1.8378,4.1172,2.7577,6.1763a3.6788,3.6788,0,0,0,.5746.994,1.2213,1.2213,0,0,1,.4955,1.502,0.6662,0.6662,0,0,0,.1381.5411,10.1183,10.1183,0,0,1,1.3944,2.8,18.7907,18.7907,0,0,1,.86,3.3667,25.6861,25.6861,0,0,1,.2342,3.2745c0.037,1.0952.024,2.1924,0.006,3.2885a103.1243,103.1243,0,0,1-1.038,11.7444,38.7,38.7,0,0,1-1.3363,6.2164c-0.5976,1.9719-.984,4.009-1.6276,5.9639a27.62,27.62,0,0,1-1.8648,4.24c-1.5084,2.8477-3.085,5.6593-4.6815,8.4589a35.1761,35.1761,0,0,1-2.2962,3.5641c-0.7187.9669-1.6176,1.7976-2.3973,2.7234a34.828,34.828,0,0,1-2.8748,2.7645,14.9977,14.9977,0,0,1-3.7666,2.6783c-2.4354,1.1763-4.8347,2.4288-7.2831,3.5761a16.7483,16.7483,0,0,1-3.2662,1.1613c-2.3813.5551-4.7846,1.018-7.191,1.4539a3.7074,3.7074,0,0,1-1.8968-.0681,4.5106,4.5106,0,0,0-3.3773-.009,0.9188,0.9188,0,0,1-.3734-0.03m7.4883-10.3005a15.2053,15.2053,0,0,1,2.1961-1.9038,56.2108,56.2108,0,0,0,5.1019-3.47,35.32,35.32,0,0,0,10.274-11.1422,87.5441,87.5441,0,0,0,6.4572-13.3967,28.0629,28.0629,0,0,0,1.8718-8.4719,41.6911,41.6911,0,0,0-2.2752-16.568,27.7316,27.7316,0,0,0-3.11-6.42c-1.028-1.487-2.1991-2.8447-3.32-4.2525a31.5354,31.5354,0,0,0-6.1169-5.87c-1.0921-.7976-2.1571-1.6353-3.2141-2.481a20.4347,20.4347,0,0,0-4.2521-2.6583,10.8255,10.8255,0,0,0-1.3333-.4078c-0.1471.6623-.2492,1.2264-0.4024,1.7775-0.1532.5551,0.1191,1.2365-.4564,1.8106-0.2573-.44-0.4424-0.76-0.6356-1.0741-0.002-.005-0.0941.0461-0.3053,0.1513-0.038,2.3988-.5115,4.87-0.1491,7.4027,0.7858-.2225.1221-1.1673,0.9149-1.4038a4.9944,4.9944,0,0,1-.1622,2.2264,27.0873,27.0873,0,0,0-.25,7.8807,103.5456,103.5456,0,0,1-.14,10.9959c-0.015.3216-.0741,0.6413-0.1,0.9619-0.0721.8968-.2032,1.7956-0.1912,2.6914,0.023,1.6753.1521,3.35,0.1972,5.025,0.0681,2.5781.1061,5.1573,0.1511,7.7354a25.8385,25.8385,0,0,1-.17,4.6242c-0.2552,1.5721-.4084,3.2124.6777,4.6473a1.0167,1.0167,0,0,1,.0781.92c-0.8718,1.3988-.6126,2.996-0.8478,4.5a6.5222,6.5222,0,0,0,.03,2.1152,7.2756,7.2756,0,0,1-.06,2.8747,8.5354,8.5354,0,0,0-.1451,1.7315c-0.018,1.7415.01,3.4829-.013,5.2244a6.18,6.18,0,0,1-.43,3.024,3.1057,3.1057,0,0,0,.1311,1.1994"/><path class="cls-1" d="M92.37,486.5979a7.3922,7.3922,0,0,0-.6957-0.7966,4.1034,4.1034,0,0,0-.7527-0.4018c-0.1772-1.1613-.36-2.3617-0.5545-3.6412-0.1622-.0371-0.4-0.09-0.7037-0.1583a8.6958,8.6958,0,0,1-.6146-3.51c0.12-3.48.1982-6.9629,0.1932-10.4438-0.004-2.2555-.2042-4.51-0.28-6.7665-0.15-4.4469-.2682-8.8937-0.4134-13.3406-0.0631-1.9339-.2192-3.8657-0.2242-5.7986-0.005-2.0581.1551-4.1172,0.1732-6.1753,0.016-1.7395-.22-3.493-0.0771-5.2174,0.3433-4.1232.1422-8.2514,0.2853-12.3746,0.0631-1.8006-.0981-3.6092-0.1561-5.4138-0.031-.9649-0.014-1.9359-0.1051-2.8958a1.86,1.86,0,0,1,.8158-2,1.6542,1.6542,0,0,0,.61-1.3657c0.1071-1.6082.22-3.2174,0.3684-4.8226,0.1431-1.538.3644-3.0681,0.4955-4.6072a7.1146,7.1146,0,0,1,2.54-4.5841,1.64,1.64,0,0,0,.1481-0.1233,6.0146,6.0146,0,0,1,4.5534-2.1282,3.1043,3.1043,0,0,0,.9609,1.2094,2.07,2.07,0,0,1,1.2572,1.7284,54.8571,54.8571,0,0,1,2.1861,13.7193,7.811,7.811,0,0,0,.5846,2.6222,11.971,11.971,0,0,1,.6236,2.029,95.4072,95.4072,0,0,1,1.9189,13.9768c0.1692,2.8336.3213,5.6683,0.5155,8.5009,0.0711,1.0271.2,2.0541,0.3734,3.07a84.8964,84.8964,0,0,1,.6256,9.2524,79.8834,79.8834,0,0,1-.2573,11.6c-0.0871,1.0251-.0541,2.0621-0.055,3.0932-0.002,3.2885.008,6.5771,0.005,9.8656a6.9355,6.9355,0,0,1-.5115,2.8357,4.5349,4.5349,0,0,0-.2793,1.1242,12.5752,12.5752,0,0,1-2.9449,6.0039,6.5918,6.5918,0,0,1-2.3543,1.9639,3.252,3.252,0,0,0-.8268.493c-2.1421,1.9228-4.8827,2.508-7.4272,3.4769"/><path class="cls-1" d="M11.8819,460.3968c-0.0561-.4128-0.0851-0.5741-0.0961-0.7375a0.3583,0.3583,0,0,1,.0741-0.1453,0.4625,0.4625,0,0,1,.1692.1784,4.9384,4.9384,0,0,1-.1471.7044"/></svg>